<mxfile host="Electron" modified="2024-01-16T16:54:51.811Z" agent="Mozilla/5.0 (Windows NT 10.0; Win64; x64) AppleWebKit/537.36 (KHTML, like Gecko) draw.io/22.1.18 Chrome/120.0.6099.199 Electron/28.1.2 Safari/537.36" etag="SSaH1RZYzpRLjYHEpNNM" version="22.1.18" type="device">
  <diagram name="PÃ¡gina-1" id="5_wTBUmaCxSif36U8GtU">
    <mxGraphModel dx="880" dy="532" grid="1" gridSize="10" guides="1" tooltips="1" connect="1" arrows="1" fold="1" page="1" pageScale="1" pageWidth="827" pageHeight="1169" math="0" shadow="0">
      <root>
        <mxCell id="0" />
        <mxCell id="1" parent="0" />
        <mxCell id="YSnf5UDgnXMdYvYuuvMs-1" value="Carro" style="swimlane;fontStyle=1;align=center;verticalAlign=top;childLayout=stackLayout;horizontal=1;startSize=26;horizontalStack=0;resizeParent=1;resizeParentMax=0;resizeLast=0;collapsible=1;marginBottom=0;whiteSpace=wrap;html=1;" parent="1" vertex="1">
          <mxGeometry x="334" y="90" width="176" height="372" as="geometry">
            <mxRectangle x="330" y="220" width="70" height="30" as="alternateBounds" />
          </mxGeometry>
        </mxCell>
        <mxCell id="NYeLLgZ9HXvXxrC6KCuS-7" value="-&amp;nbsp; ruedas: int" style="text;strokeColor=none;fillColor=none;align=left;verticalAlign=top;spacingLeft=4;spacingRight=4;overflow=hidden;rotatable=0;points=[[0,0.5],[1,0.5]];portConstraint=eastwest;whiteSpace=wrap;html=1;" vertex="1" parent="YSnf5UDgnXMdYvYuuvMs-1">
          <mxGeometry y="26" width="176" height="26" as="geometry" />
        </mxCell>
        <mxCell id="NYeLLgZ9HXvXxrC6KCuS-8" value="- ventanas: int" style="text;strokeColor=none;fillColor=none;align=left;verticalAlign=top;spacingLeft=4;spacingRight=4;overflow=hidden;rotatable=0;points=[[0,0.5],[1,0.5]];portConstraint=eastwest;whiteSpace=wrap;html=1;" vertex="1" parent="YSnf5UDgnXMdYvYuuvMs-1">
          <mxGeometry y="52" width="176" height="26" as="geometry" />
        </mxCell>
        <mxCell id="NYeLLgZ9HXvXxrC6KCuS-9" value="- marca : string" style="text;strokeColor=none;fillColor=none;align=left;verticalAlign=top;spacingLeft=4;spacingRight=4;overflow=hidden;rotatable=0;points=[[0,0.5],[1,0.5]];portConstraint=eastwest;whiteSpace=wrap;html=1;" vertex="1" parent="YSnf5UDgnXMdYvYuuvMs-1">
          <mxGeometry y="78" width="176" height="26" as="geometry" />
        </mxCell>
        <mxCell id="YSnf5UDgnXMdYvYuuvMs-2" value="+ nombre : string" style="text;strokeColor=none;fillColor=none;align=left;verticalAlign=top;spacingLeft=4;spacingRight=4;overflow=hidden;rotatable=0;points=[[0,0.5],[1,0.5]];portConstraint=eastwest;whiteSpace=wrap;html=1;" parent="YSnf5UDgnXMdYvYuuvMs-1" vertex="1">
          <mxGeometry y="104" width="176" height="26" as="geometry" />
        </mxCell>
        <mxCell id="YSnf5UDgnXMdYvYuuvMs-3" value="" style="line;strokeWidth=1;fillColor=none;align=left;verticalAlign=middle;spacingTop=-1;spacingLeft=3;spacingRight=3;rotatable=0;labelPosition=right;points=[];portConstraint=eastwest;strokeColor=inherit;" parent="YSnf5UDgnXMdYvYuuvMs-1" vertex="1">
          <mxGeometry y="130" width="176" height="8" as="geometry" />
        </mxCell>
        <mxCell id="NYeLLgZ9HXvXxrC6KCuS-13" value="&amp;nbsp;" style="text;strokeColor=none;fillColor=none;align=left;verticalAlign=top;spacingLeft=4;spacingRight=4;overflow=hidden;rotatable=0;points=[[0,0.5],[1,0.5]];portConstraint=eastwest;whiteSpace=wrap;html=1;" vertex="1" parent="YSnf5UDgnXMdYvYuuvMs-1">
          <mxGeometry y="138" width="176" height="26" as="geometry" />
        </mxCell>
        <mxCell id="NYeLLgZ9HXvXxrC6KCuS-12" value="+getRuedas(): int" style="text;strokeColor=none;fillColor=none;align=left;verticalAlign=top;spacingLeft=4;spacingRight=4;overflow=hidden;rotatable=0;points=[[0,0.5],[1,0.5]];portConstraint=eastwest;whiteSpace=wrap;html=1;" vertex="1" parent="YSnf5UDgnXMdYvYuuvMs-1">
          <mxGeometry y="164" width="176" height="26" as="geometry" />
        </mxCell>
        <mxCell id="NYeLLgZ9HXvXxrC6KCuS-4" value="+setRuedas(ruedas:int)" style="text;strokeColor=none;fillColor=none;align=left;verticalAlign=top;spacingLeft=4;spacingRight=4;overflow=hidden;rotatable=0;points=[[0,0.5],[1,0.5]];portConstraint=eastwest;whiteSpace=wrap;html=1;" vertex="1" parent="YSnf5UDgnXMdYvYuuvMs-1">
          <mxGeometry y="190" width="176" height="26" as="geometry" />
        </mxCell>
        <mxCell id="NYeLLgZ9HXvXxrC6KCuS-11" value="+getVentanas()int" style="text;strokeColor=none;fillColor=none;align=left;verticalAlign=top;spacingLeft=4;spacingRight=4;overflow=hidden;rotatable=0;points=[[0,0.5],[1,0.5]];portConstraint=eastwest;whiteSpace=wrap;html=1;" vertex="1" parent="YSnf5UDgnXMdYvYuuvMs-1">
          <mxGeometry y="216" width="176" height="26" as="geometry" />
        </mxCell>
        <mxCell id="NYeLLgZ9HXvXxrC6KCuS-5" value="+setVentanas(ventanas:int)" style="text;strokeColor=none;fillColor=none;align=left;verticalAlign=top;spacingLeft=4;spacingRight=4;overflow=hidden;rotatable=0;points=[[0,0.5],[1,0.5]];portConstraint=eastwest;whiteSpace=wrap;html=1;" vertex="1" parent="YSnf5UDgnXMdYvYuuvMs-1">
          <mxGeometry y="242" width="176" height="26" as="geometry" />
        </mxCell>
        <mxCell id="NYeLLgZ9HXvXxrC6KCuS-14" value="+getMarca()String" style="text;strokeColor=none;fillColor=none;align=left;verticalAlign=top;spacingLeft=4;spacingRight=4;overflow=hidden;rotatable=0;points=[[0,0.5],[1,0.5]];portConstraint=eastwest;whiteSpace=wrap;html=1;" vertex="1" parent="YSnf5UDgnXMdYvYuuvMs-1">
          <mxGeometry y="268" width="176" height="26" as="geometry" />
        </mxCell>
        <mxCell id="NYeLLgZ9HXvXxrC6KCuS-15" value="+setMarca(marca:String)" style="text;strokeColor=none;fillColor=none;align=left;verticalAlign=top;spacingLeft=4;spacingRight=4;overflow=hidden;rotatable=0;points=[[0,0.5],[1,0.5]];portConstraint=eastwest;whiteSpace=wrap;html=1;" vertex="1" parent="YSnf5UDgnXMdYvYuuvMs-1">
          <mxGeometry y="294" width="176" height="26" as="geometry" />
        </mxCell>
        <mxCell id="NYeLLgZ9HXvXxrC6KCuS-16" value="+getNombre()String" style="text;strokeColor=none;fillColor=none;align=left;verticalAlign=top;spacingLeft=4;spacingRight=4;overflow=hidden;rotatable=0;points=[[0,0.5],[1,0.5]];portConstraint=eastwest;whiteSpace=wrap;html=1;" vertex="1" parent="YSnf5UDgnXMdYvYuuvMs-1">
          <mxGeometry y="320" width="176" height="26" as="geometry" />
        </mxCell>
        <mxCell id="NYeLLgZ9HXvXxrC6KCuS-17" value="+setNombre(nombre:String)" style="text;strokeColor=none;fillColor=none;align=left;verticalAlign=top;spacingLeft=4;spacingRight=4;overflow=hidden;rotatable=0;points=[[0,0.5],[1,0.5]];portConstraint=eastwest;whiteSpace=wrap;html=1;" vertex="1" parent="YSnf5UDgnXMdYvYuuvMs-1">
          <mxGeometry y="346" width="176" height="26" as="geometry" />
        </mxCell>
      </root>
    </mxGraphModel>
  </diagram>
</mxfile>
